<svg width="512" height="465" viewBox="0 0 512 465" fill="none" xmlns="http://www.w3.org/2000/svg">
<path d="M0 215H512V435C512 451.569 498.569 465 482 465H30C13.4315 465 0 451.569 0 435V215Z" fill="#CED4DF"/>
<path d="M0 123H512V359.656C512 361.653 502.481 365.148 490.959 373.137C479.436 381.125 474.928 384.121 465.409 390.112C455.89 396.103 446.873 402.594 429.339 410.582C411.804 418.571 407.796 420.568 390.262 424.562C372.728 428.556 350.685 427.558 332.65 428.556C317.847 429.376 103.24 428.85 26.7955 428.635C11.9173 428.593 0 416.52 0 401.642V123Z" fill="#EDEBEB"/>
<path d="M0 68C0 51.4315 13.4315 38 30 38H482C498.569 38 512 51.4315 512 68V123H0V68Z" fill="#5A9FC4"/>
<ellipse cx="103" cy="76.5" rx="13" ry="12.5" fill="#313131" fill-opacity="0.5"/>
<ellipse cx="205" cy="76.5" rx="13" ry="12.5" fill="#313131" fill-opacity="0.5"/>
<ellipse cx="308" cy="76.5" rx="13" ry="12.5" fill="#313131" fill-opacity="0.5"/>
<ellipse cx="411" cy="76.5" rx="13" ry="12.5" fill="#313131" fill-opacity="0.5"/>
<path d="M78.5 67V14.5C81.0628 5.53017 89.5 1 103 0.5C112 0.5 126.5 3.81039 126.5 14.5V37.5H111.5V18.5C111.333 17.1666 109.4 14.5 103 14.5C96.6 14.5 94.3334 17.1666 94 18.5V65.5C94 66.6666 95 69 99 69H104.5C106.333 69.1666 110 70.9 110 76.5C110 82.1 106.667 83.8333 105 84H95.5C84.861 83.24 79.2516 76.7697 78.5 67Z" fill="#5F6F87"/>
<path d="M181 67.5V15C183.563 6.03017 192 1.5 205.5 1C214.5 1 229 4.31039 229 15V38H214V19C213.833 17.6666 211.9 15 205.5 15C199.1 15 196.833 17.6666 196.5 19V66C196.5 67.1666 197.5 69.5 201.5 69.5H207C208.833 69.6666 212.5 71.4 212.5 77C212.5 82.6 209.167 84.3333 207.5 84.5H198C187.361 83.74 181.752 77.2697 181 67.5Z" fill="#5F6F87"/>
<path d="M284 67.5V15C286.563 6.03017 295 1.5 308.5 1C317.5 1 332 4.31039 332 15V38H317V19C316.833 17.6666 314.9 15 308.5 15C302.1 15 299.833 17.6666 299.5 19V66C299.5 67.1666 300.5 69.5 304.5 69.5H310C311.833 69.6666 315.5 71.4 315.5 77C315.5 82.6 312.167 84.3333 310.5 84.5H301C290.361 83.74 284.752 77.2697 284 67.5Z" fill="#5F6F87"/>
<path d="M387 66.5V14C389.563 5.03017 398 0.5 411.5 0C420.5 0 435 3.31039 435 14V37H420V18C419.833 16.6666 417.9 14 411.5 14C405.1 14 402.833 16.6666 402.5 18V65C402.5 66.1666 403.5 68.5 407.5 68.5H413C414.833 68.6666 418.5 70.4 418.5 76C418.5 81.6 415.167 83.3333 413.5 83.5H404C393.361 82.74 387.752 76.2697 387 66.5Z" fill="#5F6F87"/>
<path d="M185.5 320H290V306C288.667 306.167 185.5 306 185.5 306C185.5 306 158.324 306 137.402 349.5C139.392 345.363 143.036 339.048 148.766 333.5C150.209 332.102 151.785 330.753 153.5 329.5C166.5 320 185.5 320 185.5 320Z" fill="#5F9182"/>
<path fill-rule="evenodd" clip-rule="evenodd" d="M127.5 354V321.5C127.5 321.5 127.5 275.045 146 251.5C168 223.5 197 223.5 197 223.5H290V187.5C290.5 178 296.5 185 296.5 185L371 257C371 257 375.756 263.668 372.788 266.5C356.291 282.241 301.966 333.941 299 335C294 336.786 290 335 290 335V320V306C288.667 306.167 185.5 306 185.5 306C185.5 306 158.324 306 137.402 349.5C136.093 352.221 135.5 354 135.5 354C135.5 354 134 358 131 358C128 358 127.5 354 127.5 354Z" fill="#7CBFAB"/>
<path d="M384.5 273.5C386 272 386 270.5 384.5 269L371 257C371 257 375.756 263.668 372.788 266.5C356.291 282.241 301.966 333.941 299 335C294 336.786 290 335 290 335V355.5C290 355.5 289.5 364 296 358L384.5 273.5Z" fill="#5F9082"/>
<path d="M315 429.5C341.5 429.376 387.3 425.488 400.5 410.688C417 392.188 426.5 365 428 354.5C429.5 344 425.5 336.021 426.5 333.188C426.667 331.521 428.2 328.688 433 330.688C437.8 332.688 488.333 350.5 512 359V362.5C485.833 378.667 436 410.347 420.5 416.688C411.182 420.5 393 426.413 383 427.5C364.6 429.5 349.5 429.5 315 429.5Z" fill="#D9D9D9"/>
<rect y="107" width="512" height="16" fill="#497993"/>
</svg>
